<svg xmlns="http://www.w3.org/2000/svg" version="1.1" xmlns:xlink="http://www.w3.org/1999/xlink" xmlns:svgjs="http://svgjs.dev/svgjs" viewBox="0 0 6.87507585620258 6.87507585620258"><g transform="matrix(1,0,0,1,2.2859150603654204,2.2859150603654204)"><g><path d=" M 0.429587441278502 -0.621603199309963 Q 0.37447402310910394 -0.6323275238893975 0.3319481277187352 -0.6683906383035384 L 0.35154318602785734 -0.7100203595356354 Q 0.3919339775768404 -0.6774844723025107 0.4363125205466729 -0.6676333341005196 Q 0.4806910635165054 -0.6577821958985286 0.5256009806092224 -0.6716421867616311 Q 0.5924880911728434 -0.6922847263449754 0.6135106977631218 -0.7411575205371472 Q 0.6345333043534 -0.7900303147293191 0.609762256853387 -0.8702948474056644 L 0.47765000351998377 -1.2983723550128392 L 0.23112322458549478 -1.2222898519770844 L 0.21755812714501144 -1.2662442389188926 L 0.5128169437758529 -1.3573663065082266 L 0.6584942945497395 -0.8853344119592438 Q 0.6894581039247558 -0.7850037461138122 0.6592220080799478 -0.7202057638299202 Q 0.6289859122351398 -0.6554077815460282 0.5391660780497058 -0.627687799819823 Q 0.4847008594479001 -0.6108788747305284 0.429587441278502 -0.621603199309963 M 1.3866355630483693 -0.7801716018643097 L 1.3866355630483693 -0.7341716018643096 L 0.9056355630483693 -0.7341716018643096 L 0.9056355630483693 -0.7701716018643097 L 1.2016355630483693 -1.0641716018643097 Q 1.2596355630483693 -1.1221716018643098 1.2801355630483693 -1.1636716018643096 Q 1.3006355630483692 -1.2051716018643097 1.3006355630483692 -1.2491716018643095 Q 1.3006355630483692 -1.3161716018643097 1.2551355630483694 -1.3541716018643095 Q 1.2096355630483693 -1.3921716018643098 1.1236355630483694 -1.3921716018643098 Q 1.0576355630483694 -1.3921716018643098 1.0081355630483693 -1.3721716018643098 Q 0.9586355630483693 -1.3521716018643097 0.9226355630483694 -1.3111716018643096 L 0.8866355630483693 -1.3431716018643096 Q 0.9266355630483694 -1.3891716018643097 0.9881355630483692 -1.4141716018643096 Q 1.0496355630483694 -1.4391716018643095 1.1276355630483694 -1.4391716018643095 Q 1.2306355630483692 -1.4391716018643095 1.2916355630483694 -1.3891716018643097 Q 1.3526355630483693 -1.3391716018643096 1.3526355630483693 -1.2541716018643096 Q 1.3526355630483693 -1.2001716018643096 1.3286355630483693 -1.1511716018643097 Q 1.3046355630483693 -1.1021716018643097 1.2386355630483692 -1.0371716018643096 L 0.9806355630483693 -0.7801716018643097 L 1.3866355630483693 -0.7801716018643097 M 1.5544846294446533 -0.7201058099477305 Q 1.515000562674073 -0.7600245833664663 1.5001946490099094 -0.8137813031377593 L 1.5398424600571374 -0.8371276321674657 Q 1.5548724172608688 -0.7874879264224273 1.5859807562128372 -0.7543402078335191 Q 1.6170890951648056 -0.7211924892446109 1.6619990122575226 -0.7073324983815084 Q 1.7288861228211436 -0.6866899587981641 1.7737950966435774 -0.7152151068296109 Q 1.8187040704660113 -0.7437402548610577 1.8434751179660243 -0.8240047875374029 L 1.9755873712994276 -1.2520822951445776 L 1.7290605923649387 -1.3281647981803322 L 1.742625689805422 -1.3721191851221404 L 2.0378845064362636 -1.2809971175328063 L 1.8922071556623767 -0.8089652229838236 Q 1.8612433462873605 -0.708634557138392 1.7997485476449169 -0.6721463434259435 Q 1.7382537490024732 -0.6356581297134951 1.6484339148170393 -0.6633781114397003 Q 1.5939686962152335 -0.6801870365289948 1.5544846294446533 -0.7201058099477305" fill="#ff6b00" fill-rule="nonzero"></path></g><g><path d=" M -0.6929413085638674 1.5733317566486782 L -0.6750412575002966 1.6451341812032958 L -1.3542533816655988 1.8144589885613975 L -1.3721534327291696 1.74265656400678 L -0.6929413085638674 1.5733317566486782 M -0.31023243071163076 2.3875132671562627 L -0.9075736033823006 2.752456445517537 L -0.9393757946394974 2.7004024290419504 L -0.6892824291904017 2.020272067597657 L -1.173982123586031 2.3163973894679484 L -1.2125618310127944 2.2532498940713346 L -0.6152206583421244 1.8883067157100601 L -0.5834184670849276 1.940360732185647 L -0.8329904851363643 2.621344438162327 L -0.3482907907407351 2.3252191162920357 L -0.31023243071163076 2.3875132671562627 M -0.49702267958770974 3.1320928650242705 Q -0.5395729399457792 3.069429276366578 -0.5464863752443493 3.0132669721726395 L -0.48924459543808996 2.9847471782636417 Q -0.48134791260661186 3.037903950177096 -0.4447327079289236 3.094300552791181 Q -0.4081175032512353 3.1506971554052656 -0.354294062883992 3.1905974970959554 Q -0.2787805793836805 3.2465770809605057 -0.22047813930025906 3.2468518177783046 Q -0.16217569921683767 3.2471265545961034 -0.12942168738119675 3.2029431333991125 Q -0.1044095328885255 3.1692030663032287 -0.11000638642729343 3.1339337420898903 Q -0.11560323996606148 3.098664417876552 -0.1372870113207434 3.06578487925695 Q -0.1589707826754253 3.0329053406373485 -0.2024624483050823 2.9807471675409096 Q -0.2540153580841633 2.917633797378083 -0.2807548413077852 2.874782309225002 Q -0.30749432453140724 2.8319308210719214 -0.3117760001740406 2.78145392285411 Q -0.31605767581667393 2.7309770246362985 -0.2773483891018256 2.678760254130764 Q -0.24578543224202615 2.636183502795482 -0.19738660845355116 2.6179132029650978 Q -0.14898778466507623 2.599642903134713 -0.08691064398958293 2.613296789231902 Q -0.024833503314089622 2.6269506753290917 0.044253300739386825 2.6781660392902755 Q 0.09245339659064944 2.7138976885655204 0.12881895156408385 2.7613955454800605 Q 0.16518450653751826 2.8088934023946006 0.18165427648370058 2.8572022698820487 L 0.1264347814250173 2.8897108436044383 Q 0.10835834161712621 2.8402109211411486 0.07682674364925801 2.7987861902477227 Q 0.045295145681389926 2.757361459354297 0.006735069000379901 2.7287761399341015 Q -0.06717174463822284 2.673987611045393 -0.12566804474413784 2.6748139729024087 Q -0.18416434485005284 2.6756403347594246 -0.2175138841736145 2.7206270908872696 Q -0.24252603866628575 2.7543671579831535 -0.2372269488714781 2.7900381496619193 Q -0.23192785907667046 2.8257091413406847 -0.20903908532570703 2.8594819711921677 Q -0.1861503115747435 2.8932548010436503 -0.14346198087594086 2.9448174466521686 Q -0.09292021347064794 3.005936426908299 -0.06577906278159884 3.0490856788053406 Q -0.03863791209254963 3.0922349307023818 -0.0344601401713831 3.1420123977108054 Q -0.030282368250216463 3.1917898647192295 -0.06839612747714419 3.2432033002939096 Q -0.09995908433694356 3.2857800516291915 -0.14875957559084574 3.303752587715616 Q -0.19756006684474792 3.32172512380204 -0.26014277870713515 3.307074042751503 Q -0.32272549056952243 3.2924229617009653 -0.3918122946229989 3.2412075977397814 Q -0.4544724192296403 3.1947564536819635 -0.49702267958770974 3.1320928650242705 M 0.5071017348502596 2.9985372071925047 L 0.27334716124248076 2.9218899677285455 L 0.2932879064688767 2.8610757697167655 L 0.8311134701355547 3.037426735312705 L 0.8111727249091587 3.0982409333244845 L 0.57741815130138 3.0215936938605252 L 0.37925699561407017 3.6259347866025875 L 0.3089405791629497 3.602878299934567 L 0.5071017348502596 2.9985372071925047 M 0.9708871437986125 3.03512757587155 L 1.04467292703649 3.040754137163579 L 0.9914486985983795 3.7387277623867443 L 0.9176629153605019 3.7331012010947155 L 0.9708871437986125 3.03512757587155 M 1.4353954433003753 3.0869536041825976 L 1.1925739742673898 3.1263710391151607 L 1.18231903184591 3.0631979740008877 L 1.7410058264502588 2.9725058269609255 L 1.7512607688717388 3.035678892075198 L 1.508439299838753 3.075096327007761 L 1.6103477901522092 3.7028786615808458 L 1.5373039336138314 3.7147359387556818 L 1.4353954433003753 3.0869536041825976 M 2.23528935802337 3.4357111344060174 Q 2.1304544858507266 3.4062213128306755 2.0558804432814775 3.2772263044974856 L 1.8551811743534983 2.9300652418021214 L 1.9192458093646128 2.893028468982494 L 2.118443587502607 3.2375923167449754 Q 2.179504212961992 3.3432123906822184 2.2571496358645455 3.367629358190156 Q 2.3347950587670985 3.392046325698094 2.4248318431070435 3.339994644978618 Q 2.5157343657579494 3.287442467329147 2.533320157061107 3.2079708375217635 Q 2.5509059483642647 3.1284992077143805 2.4898453229048796 3.0228791337771375 L 2.2906475447668853 2.678315286014656 L 2.352980703156078 2.6422795070550187 L 2.553679972084057 2.989440569750383 Q 2.628254014653306 3.1184355780835733 2.6019295327153573 3.2237506845531514 Q 2.575605050777408 3.32906579102273 2.4578646404867106 3.397133373502044 Q 2.3401242301960137 3.465200955981359 2.23528935802337 3.4357111344060174 M 2.6495503082573792 2.409682266555881 L 2.494929920640161 2.6010158384482733 L 2.4451520807982376 2.5607893961413546 L 2.8009046799500488 2.1205666250393467 L 2.850682519791972 2.1607930673462654 L 2.6960621321747538 2.3521266392386573 L 3.1907294156038652 2.75187690966366 L 3.1442175916864907 2.809432536980884 L 2.6495503082573792 2.409682266555881 M 3.625302319780381 1.7398433677632372 L 3.685603887846587 1.7612844705510304 L 3.5197703584722495 2.227679411063093 L 2.86022195774812 1.993167349321606 L 3.0210302286565685 1.54090558882506 L 3.0813317967227745 1.5623466916128532 L 2.945314800912712 1.9448847640328482 L 3.179925589170295 2.028304054566606 L 3.30120182681375 1.6872233101921275 L 3.3605611828789215 1.7083293957488612 L 3.239284945235467 2.0494101401233396 L 3.4842600655044293 2.1365146201987493 L 3.625302319780381 1.7398433677632372" fill="#ff6b00" fill-rule="nonzero"></path></g><g clip-path="url(#SvgjsClipPath1000)"><path d=" M 0 1.1516228677358693 C 0 0.5155991203289441 0.5155991203289436 2.220446049250313e-16 1.151622867735869 0 C 1.7876466151427945 0 2.3032457354717386 0.5155991203289436 2.3032457354717386 1.151622867735869 C 2.3032457354717386 1.7876466151427945 1.787646615142795 2.3032457354717386 1.1516228677358695 2.3032457354717386 C 0.5155991203289441 2.3032457354717386 2.220446049250313e-16 1.787646615142795 0 1.1516228677358695 Z M 0.060064042289632136 1.1516228677358693 C 0.06006404228963225 1.754474160573039 0.5487715748986997 2.2431816931821067 1.1516228677358695 2.2431816931821067 C 1.754474160573039 2.2431816931821067 2.2431816931821067 1.754474160573039 2.2431816931821067 1.1516228677358693 C 2.2431816931821067 0.5487715748986995 1.754474160573039 0.060064042289632136 1.1516228677358695 0.060064042289632136 C 0.5487715748986997 0.060064042289632136 0.06006404228963225 0.5487715748986994 0.060064042289632136 1.151622867735869 Z" fill="#ff6b00" transform="matrix(1,0,0,1,0,0)" fill-rule="nonzero"></path><path d=" M 1.1254751805533898 1.4264996310390963 C 1.1124624927823632 1.4740459902024632 1.095195657086193 1.5170879574450904 1.0736746734648794 1.5556255327669772 C 1.052153689843566 1.594163108088864 1.0261283143015123 1.6261943395252376 0.9955985468387187 1.6517192270760979 C 0.9650687793759252 1.677244114626958 0.9287834000144083 1.6900065584023882 0.886742408754168 1.6900065584023882 C 0.858715081247341 1.6900065584023882 0.8284355577801441 1.6840007025080683 0.7959038383525772 1.671988990719428 C 0.7633721189250102 1.6599772789307878 0.7275872275546866 1.6394572712918611 0.6885491642416063 1.6104289678026475 L 0.7921501784186271 1.3792035158713256 C 0.7971550583305606 1.3892132756951925 0.8069145741588306 1.3979718155410759 0.8214287259034374 1.405479135408976 C 0.8359428776480442 1.4129864552768758 0.8517082493706343 1.416740115210826 0.8687248410712077 1.416740115210826 C 0.8807365528598479 1.416740115210826 0.8914970446705046 1.4067303553869595 0.9010063165031781 1.3867108357392257 C 0.9105155883358514 1.3666913160914924 0.9187736401905415 1.3434186245010022 0.9257804720672482 1.3168927609677552 C 0.9327873039439549 1.2903668974345084 0.9382926718470816 1.2630903019144715 0.9422965757766284 1.2350629744076447 C 0.9463004797061751 1.2070356469008177 0.9493034076533351 1.1845136872971174 0.9513053596181085 1.167497095596544 C 0.9703239032834552 1.0704024253050366 0.9883414709664154 0.9735579990091258 1.005358062666989 0.8769638167088116 C 1.0223746543675625 0.7803696344084975 1.0423941740152958 0.6840256961037801 1.0654166216101895 0.5879320017946594 C 1.1104605408175896 0.5839280978651126 1.1547537280382 0.5776719979751958 1.1982961832720205 0.5691637021249091 C 1.2418386385058409 0.5606554062746224 1.285631337735258 0.550395402455159 1.3296742809602715 0.538383690666519 C 1.3146596412244715 0.5894334657682394 1.299144513497478 0.6474900727466665 1.2831288977792912 0.7125535116018002 C 1.2671132820611044 0.7776169504569341 1.2515981543341108 0.844181853285648 1.2365835145983106 0.9122482200879419 C 1.2215688748625106 0.9803145868902359 1.2073049671135005 1.0471297337145464 1.1937917913512803 1.1126936605608737 C 1.18027861558906 1.1782575874072008 1.1685171477960168 1.2370649263724178 1.1585073879721501 1.2891156774565249 C 1.14949860413067 1.3331586206815387 1.1384878683244166 1.3789532718757291 1.1254751805533898 1.4264996310390963 M 1.3326647455834322 1.662229474891158 C 1.3066393700413785 1.664731914847125 1.2796130185169383 1.6677348427942849 1.2515856910101115 1.6712382587326382 C 1.2235583635032845 1.6747416746709916 1.1982837199480212 1.6779948466137484 1.175761760344321 1.6809977745609084 C 1.1532398007406206 1.6840007025080679 1.1409778449563839 1.6860026544728415 1.1389758929916107 1.6870036304552283 C 1.1509876047802505 1.6439616632126013 1.1629993165688908 1.5961650600536377 1.1750110283575308 1.543613820978337 C 1.1870227401461708 1.4910625819030368 1.1992846959304078 1.4360089028717695 1.2117968957102412 1.3784527838845357 C 1.2243090954900744 1.320896664897302 1.2363208072787146 1.2625898139232783 1.2478320310761615 1.2035322309624643 C 1.2593432548736083 1.1444746480016503 1.2706042346754582 1.08741901700561 1.2816149704817117 1.032365337974343 C 1.3066393700413785 0.9042404122288485 1.3311632816098522 0.7726120705450008 1.3551867051871325 0.6374803129227997 L 1.5894150850656144 0.5999437135832995 C 1.5633897095235607 0.7340744952231137 1.537364333981507 0.8657028369069615 1.5113389584394534 0.9948287386348427 C 1.5003282226332 1.0498824176661097 1.48906724283135 1.1069380486621503 1.4775560190339032 1.165995631622964 C 1.4660447952364564 1.2250532145837778 1.455034059430203 1.2836103095533984 1.4445238116151429 1.3416669165318256 C 1.4340135638000828 1.3997235235102528 1.4235033159850228 1.456028422519503 1.4129930681699627 1.5105816135595767 C 1.4024828203549027 1.5651348045996507 1.393223792517826 1.6144328717321943 1.3852159846587326 1.658475814957208 C 1.3762072008172526 1.658475814957208 1.3586901211254856 1.6597270349351914 1.3326647455834322 1.662229474891158" fill="#ff6b00" transform="matrix(1,0,0,1,0,0)" fill-rule="nonzero"></path></g><g><path d=" M -0.5753066410782921 1.151622867735869 A 1.7269295088141612 1.7269295088141612 0 0 1 2.8785523765500303 1.151622867735869 A 1.7269295088141612 1.7269295088141612 0 0 1 -0.5753066410782921 1.151622867735869 Z M -0.5253066410782918 1.1516228677358695 A 1.6769295088141614 1.6769295088141614 0 0 0 2.828552376550031 1.1516228677358695 A 1.6769295088141614 1.6769295088141614 0 0 0 -0.5253066410782918 1.1516228677358695 Z" fill="#ff6b00" fill-rule="nonzero"></path></g><g><path d=" M -1.7379920723485391 1.1516228677358693 A 2.8896149400844084 2.8896149400844084 0 0 1 4.041237807820278 1.1516228677358693 A 2.8896149400844084 2.8896149400844084 0 0 1 -1.737992072348539 1.1516228677358693 Z M -1.6879920723485393 1.1516228677358693 A 2.8396149400844086 2.8396149400844086 0 0 0 3.991237807820278 1.1516228677358693 A 2.8396149400844086 2.8396149400844086 0 0 0 -1.687992072348539 1.1516228677358693 Z" fill="#ff6b00" fill-rule="nonzero"></path></g><g transform="matrix(0.6006392404176529,-0.7995201703962852,0.7995201703962852,0.6006392404176529,-0.3977294651455837,-0.6191839284945925)"><g clip-path="url(#SvgjsClipPath1001)"><path d=" M -0.8186677905076312 0.28385457329423486 C -0.7099424556800449 0.28385457329423486 -0.6198824613697002 0.19398725346664858 -0.6198824613697002 0.08506924415630374 C -0.6198824613697002 -0.023655652774730695 -0.7099424556800449 -0.11371542813679969 -0.8188604649903899 -0.11371542813679969 C -0.9275860187662519 -0.11371542813679969 -1.0174531196455623 -0.023655652774730695 -1.0174531196455623 0.08506924415630374 C -1.0174531196455623 0.19398725346664858 -0.9273935632317691 0.28385457329423486 -0.8186677905076312 0.28385457329423486 Z M -0.8186677905076312 0.24479201139768314 C -0.9071879215938381 0.24479201139768314 -0.9781963506283209 0.17359003208733825 -0.9781963506283209 0.08506924415630374 C -0.9781963506283209 -0.003449354291972101 -0.9073803771283209 -0.07445865911955829 -0.8188604649903899 -0.07445865911955829 C -0.7303396770593553 -0.07445865911955829 -0.6591398872317691 -0.003449354291972101 -0.6589472127490106 0.08506924415630374 C -0.6589472127490106 0.17359003208733825 -0.7301470025765967 0.24479201139768314 -0.8186677905076312 0.24479201139768314 Z M -0.8184751160248726 0.16050349363906236 C -0.7769099753352173 0.16050349363906236 -0.743040866542114 0.1266365743287176 -0.743040866542114 0.08468608467354516 C -0.743040866542114 0.043118754501131396 -0.7769099753352173 0.009249645708027915 -0.8184751160248726 0.009249645708027915 C -0.860425605680045 0.009249645708027915 -0.8942947144731485 0.043118754501131396 -0.8942947144731485 0.08468608467354516 C -0.8942947144731485 0.1266365743287176 -0.860425605680045 0.16050349363906236 -0.8184751160248726 0.16050349363906236 Z" fill="#ff6b00" transform="matrix(1,0,0,1,0,0)" fill-rule="nonzero"></path></g></g><g transform="matrix(-0.6006392404176529,-0.7995201703962852,-0.7995201703962852,0.6006392404176529,5.067842969356069,2.5313903171235124)"><g clip-path="url(#SvgjsClipPath1002)"><path d=" M 3.1219135259793696 0.28385457329423486 C 3.230638860806956 0.28385457329423486 3.3206988551173007 0.19398725346664858 3.3206988551173007 0.08506924415630374 C 3.3206988551173007 -0.023655652774730695 3.230638860806956 -0.11371542813679969 3.1217208514966113 -0.11371542813679969 C 3.012995297720749 -0.11371542813679969 2.923128196841439 -0.023655652774730695 2.923128196841439 0.08506924415630374 C 2.923128196841439 0.19398725346664858 3.013187753255232 0.28385457329423486 3.1219135259793696 0.28385457329423486 Z M 3.1219135259793696 0.24479201139768314 C 3.033393394893163 0.24479201139768314 2.9623849658586803 0.17359003208733825 2.9623849658586803 0.08506924415630374 C 2.9623849658586803 -0.003449354291972101 3.03320093935868 -0.07445865911955829 3.1217208514966113 -0.07445865911955829 C 3.210241639427646 -0.07445865911955829 3.281441429255232 -0.003449354291972101 3.2816341037379906 0.08506924415630374 C 3.2816341037379906 0.17359003208733825 3.210434313910404 0.24479201139768314 3.1219135259793696 0.24479201139768314 Z M 3.1221062004621283 0.16050349363906236 C 3.1636713411517836 0.16050349363906236 3.197540449944887 0.1266365743287176 3.197540449944887 0.08468608467354516 C 3.197540449944887 0.043118754501131396 3.1636713411517836 0.009249645708027915 3.1221062004621283 0.009249645708027915 C 3.080155710806956 0.009249645708027915 3.0462866020138524 0.043118754501131396 3.0462866020138524 0.08468608467354516 C 3.0462866020138524 0.1266365743287176 3.080155710806956 0.16050349363906236 3.1221062004621283 0.16050349363906236 Z" fill="#ff6b00" transform="matrix(1,0,0,1,0,0)" fill-rule="nonzero"></path></g></g></g><defs><clipPath id="SvgjsClipPath1000"><path d=" M 0 0 h 2.3032457354717386 v 2.3032457354717386 h -2.3032457354717386 Z"></path></clipPath><clipPath id="SvgjsClipPath1001"><path d=" M -1.1251953767145277 -0.2289398046367997 h 0.6130551724137931 v 0.63495 h -0.6130551724137931 Z"></path></clipPath><clipPath id="SvgjsClipPath1002"><path d=" M 2.815385939772473 -0.2289398046367997 h 0.6130551724137931 v 0.63495 h -0.6130551724137931 Z"></path></clipPath></defs></svg>